<svg viewBox="0 0 69.3445 15.5833" fill="none" xmlns="http://www.w3.org/2000/svg" xmlns:xlink="http://www.w3.org/1999/xlink" x="0" y="0"><path id="Vector_6" fill-rule="evenodd" clip-rule="evenodd" d="M56.4591,4.6725c0.265,0.458 0.352,0.978 0.381,1.563l0.037,0.78v5.452l0.039,0.78c0.077,1.275 1.017,2.217 2.301,2.297l0.776,0.039v-8.568l0.039,-0.78c0.032,-0.578 0.118,-1.108 0.387,-1.569c0.274,-0.472 0.668,-0.864 1.141,-1.137c0.474,-0.272 1.011,-0.414 1.557,-0.413c0.547,0.001 1.083,0.145 1.556,0.419c0.472,0.274 0.865,0.667 1.137,1.141c0.265,0.457 0.348,0.987 0.38,1.559l0.038,0.777v5.455l0.039,0.78c0.08,1.281 1.012,2.224 2.301,2.297l0.776,0.039v-9.348c0,-1.653 -0.656,-3.238 -1.825,-4.407c-1.168,-1.169 -2.753,-1.826 -4.406,-1.827c-0.885,-0.001 -1.76,0.187 -2.566,0.551c-0.806,0.364 -1.525,0.896 -2.11,1.561c-0.584,-0.664 -1.303,-1.196 -2.11,-1.561c-0.806,-0.364 -1.68,-0.552 -2.565,-0.552c-1.294,0 -2.495,0.393 -3.49,1.071c-0.607,-0.677 -1.965,-1.071 -2.745,-1.071v15.583l0.78,-0.039c1.304,-0.086 2.246,-1.003 2.297,-2.297l0.042,-0.78v-5.452l0.038,-0.78c0.033,-0.588 0.115,-1.105 0.381,-1.566c0.274,-0.472 0.668,-0.864 1.141,-1.136c0.473,-0.273 1.01,-0.416 1.556,-0.417c0.546,0.001 1.083,0.144 1.557,0.418c0.473,0.273 0.866,0.665 1.14,1.138zM3.1161,15.5455l0.78,0.038h11.686l-0.038,-0.777c-0.106,-1.282 -1.013,-2.217 -2.298,-2.301l-0.78,-0.038h-7.011l9.348,-9.351l-0.039,-0.777c-0.06,-1.294 -1.006,-2.229 -2.298,-2.3l-0.779,-0.035l-11.687,-0.004l0.038,0.78c0.103,1.269 1.023,2.224 2.298,2.298l0.78,0.038h7.011l-9.347,9.351l0.038,0.78c0.077,1.285 1.004,2.215 2.298,2.297zM44.4681,2.2815c0.724,0.724 1.298,1.583 1.689,2.528c0.392,0.945 0.594,1.958 0.594,2.982c0,1.023 -0.202,2.036 -0.594,2.982c-0.391,0.945 -0.965,1.804 -1.689,2.527c-1.462,1.461 -3.444,2.282 -5.511,2.282c-2.066,0 -4.048,-0.821 -5.51,-2.282c-3.043,-3.042 -3.043,-7.976 0,-11.019c0.723,-0.723 1.581,-1.297 2.526,-1.688c0.944,-0.392 1.957,-0.593 2.979,-0.594c1.025,0 2.039,0.201 2.986,0.593c0.946,0.391 1.806,0.966 2.53,1.69zM42.2631,4.4885c0.877,0.877 1.369,2.066 1.369,3.306c0,1.239 -0.492,2.429 -1.369,3.306c-0.877,0.876 -2.066,1.368 -3.306,1.368c-1.239,0 -2.429,-0.492 -3.306,-1.368c-0.876,-0.877 -1.368,-2.067 -1.368,-3.306c0,-1.24 0.492,-2.429 1.368,-3.306c0.877,-0.877 2.067,-1.369 3.306,-1.369c1.24,0 2.429,0.492 3.306,1.369zM22.6001,-0.0005c1.023,0.001 2.035,0.202 2.98,0.594c0.945,0.392 1.803,0.966 2.526,1.689c3.043,3.042 3.043,7.977 0,11.018c-1.462,1.461 -3.444,2.282 -5.511,2.282c-2.066,0 -4.049,-0.821 -5.511,-2.282c-3.042,-3.042 -3.042,-7.976 0,-11.019c0.723,-0.723 1.582,-1.297 2.526,-1.688c0.945,-0.392 1.958,-0.593 2.98,-0.594zM25.9011,4.4865c0.877,0.877 1.369,2.066 1.369,3.306c0,1.24 -0.492,2.43 -1.369,3.307c-0.877,0.876 -2.066,1.368 -3.306,1.368c-1.24,0 -2.429,-0.492 -3.306,-1.368c-0.876,-0.877 -1.368,-2.066 -1.368,-3.306c0,-1.24 0.492,-2.429 1.368,-3.306c0.877,-0.877 2.066,-1.369 3.306,-1.369c1.24,0 2.429,0.492 3.306,1.369z" fill="currentColor"/></svg>