<svg viewBox="0 0 94.2083 34" fill="none" xmlns="http://www.w3.org/2000/svg" xmlns:xlink="http://www.w3.org/1999/xlink" x="0" y="0"><defs><clipPath id="clip4_21_335">
<rect width="94.2083" height="34" fill="white" transform="translate(-0.0015999999998257408, 0)"/>
</clipPath></defs><g id="Logo_6" clip-path="url(#clip4_21_335)">
<path id="Vector_9" d="M10.3684,4.25h-10.37v24.792z" fill="currentColor"/>
<path id="Vector_10" d="M17.6584,4.25h10.35v24.792z" fill="currentColor"/>
<path id="Vector_11" d="M14.0084,13.388l6.6,15.654h-4.33l-1.97,-4.984h-4.83z" fill="currentColor"/>
<path id="Vector_12" d="M44.9284,20.015l1.22,3.505c0.04,0.087 0.1,0.128 0.21,0.128h2.35c0.13,0 0.15,-0.061 0.13,-0.189l-4.86,-13.487c-0.02,-0.108 -0.04,-0.128 -0.15,-0.128h-2.91c-0.08,0 -0.13,0.061 -0.13,0.149c-0.04,0.709 -0.1,0.925 -0.19,1.134l-4.33,12.312c-0.02,0.148 0.03,0.209 0.15,0.209h2.1c0.13,0 0.19,-0.041 0.24,-0.169l1.15,-3.464zM40.5784,17.725c0.63,-1.918 1.47,-4.376 1.81,-5.781h0.02c0.42,1.473 1.4,4.39 1.85,5.781z" fill="currentColor"/>
<path id="Vector_13" d="M55.0784,23.857c1.26,0 2.61,-0.23 3.97,-0.817c0.11,-0.041 0.13,-0.088 0.13,-0.19c-0.04,-0.378 -0.09,-0.925 -0.09,-1.343v-12.697c0,-0.081 0,-0.121 -0.1,-0.121h-2.29c-0.09,0 -0.13,0.04 -0.13,0.148v4.302c-0.35,-0.04 -0.6,-0.061 -0.9,-0.061c-3.7,0 -5.97,2.438 -5.97,5.484c0,3.532 2.33,5.295 5.38,5.295zM56.5684,21.507c-0.38,0.121 -0.79,0.168 -1.22,0.168c-1.67,0 -3.05,-0.945 -3.05,-3.241c0,-2.033 1.42,-3.235 3.29,-3.235c0.38,0 0.71,0.04 0.98,0.148z" fill="currentColor"/>
<path id="Vector_14" d="M66.4784,13.079c-3.15,0 -5.1,2.418 -5.1,5.403c0,2.668 1.55,5.376 5.05,5.376c2.97,0 5.05,-2.182 5.05,-5.443c0,-2.877 -1.76,-5.336 -5,-5.336zM66.3484,15.2c1.79,0 2.54,1.533 2.54,3.282c0,2.161 -1.11,3.235 -2.41,3.235c-1.6,0 -2.54,-1.344 -2.54,-3.282c0,-1.992 1,-3.235 2.41,-3.235z" fill="currentColor"/>
<path id="Vector_15" d="M73.8484,8.689c-0.09,0 -0.15,0.04 -0.15,0.148v14.371c0,0.061 0.06,0.169 0.15,0.189c1,0.311 2.06,0.46 3.14,0.46c3.12,0 6.14,-1.932 6.14,-5.822c0,-2.816 -1.93,-4.957 -4.95,-4.957c-0.7,0 -1.35,0.108 -1.92,0.297l-0.02,-4.518c0,-0.148 -0.04,-0.168 -0.19,-0.168zM80.5484,18.292c0,2.33 -1.6,3.424 -3.32,3.424c-0.36,0 -0.68,-0.02 -0.97,-0.108v-6.132c0.34,-0.129 0.73,-0.237 1.47,-0.237c1.66,0 2.82,1.054 2.82,3.053z" fill="currentColor"/>
<path id="Vector_16" d="M91.6784,19.049c1.02,0 1.87,-0.02 2.16,-0.087c0.11,-0.021 0.15,-0.061 0.17,-0.149c0.06,-0.23 0.08,-0.709 0.08,-1.297c0,-1.999 -1.2,-4.437 -4.3,-4.437c-3.18,0 -4.94,2.587 -4.94,5.504c0,2.587 1.36,5.275 5.19,5.275c1.43,0 2.35,-0.23 3.15,-0.608c0.08,-0.041 0.12,-0.108 0.12,-0.23v-1.749c0,-0.101 -0.06,-0.121 -0.12,-0.081c-0.8,0.338 -1.66,0.507 -2.61,0.507c-2.14,0 -3.11,-1.182 -3.17,-2.648zM87.4084,17.239c0.17,-1.026 0.82,-2.14 2.27,-2.14c1.6,0 2.02,1.344 2.02,1.951c0,0.021 0,0.108 0,0.169c-0.09,0.02 -0.36,0.02 -1.16,0.02z" fill="currentColor"/>
</g></svg>